<svg xmlns="http://www.w3.org/2000/svg" xmlns:xlink="http://www.w3.org/1999/xlink" width="50" zoomAndPan="magnify" viewBox="0 0 37.5 37.499999" height="50" preserveAspectRatio="xMidYMid meet" version="1.0"><defs><clipPath id="8f2d47121f"><path d="M 1.433594 6.875 L 35.480469 6.875 L 35.480469 29.820312 L 1.433594 29.820312 Z M 1.433594 6.875 " clip-rule="nonzero"/></clipPath></defs><g clip-path="url(#8f2d47121f)"><path fill="#2e2e2e" d="M 18.5 6.875 C 10.75 6.875 4.132812 11.695312 1.453125 18.496094 C 4.132812 25.300781 10.75 30.121094 18.5 30.121094 C 26.246094 30.121094 32.863281 25.300781 35.542969 18.496094 C 32.863281 11.695312 26.253906 6.875 18.5 6.875 Z M 18.5 26.246094 C 14.222656 26.246094 10.75 22.773438 10.75 18.496094 C 10.75 14.222656 14.222656 10.75 18.5 10.75 C 22.777344 10.75 26.246094 14.222656 26.246094 18.496094 C 26.246094 22.773438 22.777344 26.246094 18.5 26.246094 Z M 18.5 13.847656 C 15.933594 13.847656 13.851562 15.933594 13.851562 18.496094 C 13.851562 21.0625 15.933594 23.148438 18.5 23.148438 C 21.0625 23.148438 23.148438 21.0625 23.148438 18.496094 C 23.148438 15.933594 21.0625 13.847656 18.5 13.847656 Z M 18.5 13.847656 " fill-opacity="1" fill-rule="nonzero"/></g></svg>