<svg xmlns="http://www.w3.org/2000/svg" xmlns:xlink="http://www.w3.org/1999/xlink" width="100" zoomAndPan="magnify" viewBox="0 0 75 37.5" height="50" preserveAspectRatio="xMidYMid meet" version="1.0"><defs><clipPath id="2e983e9ab7"><path d="M 4.195312 2.726562 L 70.804688 2.726562 L 70.804688 34.550781 L 4.195312 34.550781 Z M 4.195312 2.726562 " clip-rule="nonzero"/></clipPath></defs><g clip-path="url(#2e983e9ab7)"><path fill="#1e2346" d="M 56.734375 33.335938 L 69.894531 20.175781 C 70.804688 19.265625 70.804688 17.761719 69.894531 16.851562 L 56.734375 3.664062 C 55.824219 2.75 54.320312 2.75 53.410156 3.664062 C 52.496094 4.574219 52.496094 6.078125 53.410156 6.988281 L 62.5625 16.144531 L 6.550781 16.144531 C 5.253906 16.144531 4.195312 17.203125 4.195312 18.5 C 4.195312 19.792969 5.253906 20.851562 6.550781 20.851562 L 62.535156 20.851562 L 53.378906 30.007812 C 52.910156 30.480469 52.703125 31.066406 52.703125 31.6875 C 52.703125 32.304688 52.9375 32.890625 53.378906 33.363281 C 54.320312 34.246094 55.824219 34.246094 56.734375 33.335938 Z M 56.734375 33.335938 " fill-opacity="1" fill-rule="nonzero"/></g></svg>