<svg xmlns="http://www.w3.org/2000/svg" xmlns:xlink="http://www.w3.org/1999/xlink" width="50" zoomAndPan="magnify" viewBox="0 0 37.5 37.499999" height="50" preserveAspectRatio="xMidYMid meet" version="1.0"><defs><clipPath id="b1ab60ae00"><path d="M 1 1 L 35.785156 1 L 35.785156 35.785156 L 1 35.785156 Z M 1 1 " clip-rule="nonzero"/></clipPath></defs><path fill="#2e2e2e" d="M 18.503906 8.699219 C 16.183594 8.699219 14.300781 10.582031 14.300781 12.902344 C 14.300781 15.226562 16.183594 17.105469 18.503906 17.105469 C 20.828125 17.105469 22.707031 15.226562 22.707031 12.902344 C 22.707031 10.582031 20.828125 8.699219 18.503906 8.699219 " fill-opacity="1" fill-rule="nonzero"/><g clip-path="url(#b1ab60ae00)"><path fill="#2e2e2e" d="M 18.503906 29.222656 C 18.503906 29.222656 10.617188 18.492188 10.617188 14.132812 C 10.617188 9.777344 14.148438 6.246094 18.503906 6.246094 C 22.859375 6.246094 26.394531 9.777344 26.394531 14.132812 C 26.394531 18.492188 18.503906 29.222656 18.503906 29.222656 Z M 18.503906 1 C 8.835938 1 1 8.835938 1 18.503906 C 1 28.171875 8.835938 36.011719 18.503906 36.011719 C 28.171875 36.011719 36.011719 28.171875 36.011719 18.503906 C 36.011719 8.835938 28.171875 1 18.503906 1 " fill-opacity="1" fill-rule="nonzero"/></g></svg>