<svg xmlns="http://www.w3.org/2000/svg" xmlns:xlink="http://www.w3.org/1999/xlink" width="50" zoomAndPan="magnify" viewBox="0 0 37.5 37.499999" height="50" preserveAspectRatio="xMidYMid meet" version="1.0"><defs><clipPath id="5ed1f58371"><path d="M 3.542969 1 L 33.148438 1 L 33.148438 36.222656 L 3.542969 36.222656 Z M 3.542969 1 " clip-rule="nonzero"/></clipPath></defs><g clip-path="url(#5ed1f58371)"><path fill="#2e2e2e" d="M 32.300781 6.824219 C 29.882812 6.726562 27.554688 6.210938 25.320312 5.28125 C 23.085938 4.347656 21.085938 3.058594 19.3125 1.40625 C 19.207031 1.296875 19.082031 1.214844 18.9375 1.15625 C 18.796875 1.097656 18.652344 1.070312 18.496094 1.070312 C 18.34375 1.070312 18.199219 1.097656 18.054688 1.15625 C 17.914062 1.214844 17.789062 1.296875 17.679688 1.40625 C 12.355469 6.742188 4.765625 6.824219 4.695312 6.824219 C 4.542969 6.824219 4.394531 6.851562 4.253906 6.910156 C 4.113281 6.96875 3.988281 7.054688 3.882812 7.160156 C 3.773438 7.269531 3.691406 7.394531 3.632812 7.535156 C 3.574219 7.675781 3.542969 7.820312 3.542969 7.972656 L 3.542969 17.175781 C 3.542969 18.25 3.632812 19.316406 3.808594 20.375 C 3.984375 21.429688 4.246094 22.46875 4.597656 23.484375 C 4.945312 24.496094 5.375 25.476562 5.886719 26.417969 C 6.398438 27.363281 6.984375 28.257812 7.644531 29.101562 C 8.304688 29.949219 9.03125 30.734375 9.820312 31.457031 C 10.613281 32.183594 11.457031 32.839844 12.359375 33.421875 C 13.257812 34.007812 14.199219 34.511719 15.183594 34.941406 C 16.167969 35.367188 17.179688 35.710938 18.222656 35.972656 C 18.40625 36.015625 18.589844 36.015625 18.773438 35.972656 C 19.816406 35.710938 20.828125 35.367188 21.8125 34.941406 C 22.796875 34.511719 23.738281 34.007812 24.636719 33.421875 C 25.535156 32.839844 26.382812 32.183594 27.171875 31.457031 C 27.964844 30.734375 28.691406 29.949219 29.351562 29.101562 C 30.011719 28.257812 30.597656 27.363281 31.109375 26.417969 C 31.621094 25.476562 32.050781 24.496094 32.398438 23.484375 C 32.746094 22.46875 33.011719 21.429688 33.1875 20.375 C 33.363281 19.316406 33.453125 18.25 33.449219 17.175781 L 33.449219 7.972656 C 33.449219 7.820312 33.421875 7.675781 33.363281 7.535156 C 33.304688 7.394531 33.222656 7.269531 33.113281 7.160156 C 33.003906 7.054688 32.882812 6.96875 32.742188 6.910156 C 32.597656 6.851562 32.453125 6.824219 32.300781 6.824219 Z M 25.066406 15.691406 L 18.164062 22.59375 C 18.054688 22.699219 17.929688 22.78125 17.789062 22.839844 C 17.648438 22.898438 17.5 22.925781 17.347656 22.925781 C 17.195312 22.925781 17.046875 22.898438 16.90625 22.839844 C 16.765625 22.78125 16.640625 22.699219 16.53125 22.59375 L 13.078125 19.144531 C 12.972656 19.035156 12.886719 18.910156 12.828125 18.769531 C 12.769531 18.625 12.742188 18.480469 12.742188 18.328125 C 12.742188 18.171875 12.769531 18.027344 12.828125 17.882812 C 12.886719 17.742188 12.972656 17.617188 13.078125 17.507812 C 13.1875 17.402344 13.3125 17.316406 13.453125 17.257812 C 13.597656 17.199219 13.742188 17.171875 13.898438 17.171875 C 14.050781 17.171875 14.195312 17.199219 14.339844 17.257812 C 14.480469 17.316406 14.605469 17.402344 14.714844 17.507812 L 17.347656 20.15625 L 23.433594 14.058594 C 23.539062 13.949219 23.664062 13.867188 23.808594 13.808594 C 23.949219 13.75 24.09375 13.722656 24.25 13.722656 C 24.402344 13.722656 24.550781 13.75 24.691406 13.808594 C 24.832031 13.867188 24.957031 13.949219 25.066406 14.058594 C 25.171875 14.167969 25.257812 14.292969 25.316406 14.433594 C 25.375 14.574219 25.402344 14.722656 25.402344 14.875 C 25.402344 15.027344 25.375 15.175781 25.316406 15.316406 C 25.257812 15.460938 25.171875 15.585938 25.066406 15.691406 Z M 25.066406 15.691406 " fill-opacity="1" fill-rule="nonzero"/></g></svg>