<svg xmlns="http://www.w3.org/2000/svg" xmlns:xlink="http://www.w3.org/1999/xlink" width="50" zoomAndPan="magnify" viewBox="0 0 37.5 37.499999" height="50" preserveAspectRatio="xMidYMid meet" version="1.0"><defs><clipPath id="8e7a388fa9"><path d="M 1 5.769531 L 35.785156 5.769531 L 35.785156 30.933594 L 1 30.933594 Z M 1 5.769531 " clip-rule="nonzero"/></clipPath></defs><g clip-path="url(#8e7a388fa9)"><path fill="#2e2e2e" d="M 31.230469 12.136719 L 26.457031 12.136719 L 26.457031 5.773438 L 4.179688 5.773438 C 2.421875 5.773438 1 7.195312 1 8.953125 L 1 26.457031 L 4.179688 26.457031 C 4.179688 29.089844 6.320312 31.230469 8.953125 31.230469 C 11.589844 31.230469 13.730469 29.089844 13.730469 26.457031 L 23.277344 26.457031 C 23.277344 29.089844 25.414062 31.230469 28.050781 31.230469 C 30.683594 31.230469 32.824219 29.089844 32.824219 26.457031 L 36.003906 26.457031 L 36.003906 18.5 Z M 8.953125 28.84375 C 7.632812 28.84375 6.566406 27.777344 6.566406 26.457031 C 6.566406 25.136719 7.632812 24.070312 8.953125 24.070312 C 10.277344 24.070312 11.34375 25.136719 11.34375 26.457031 C 11.34375 27.777344 10.277344 28.84375 8.953125 28.84375 Z M 30.4375 14.523438 L 33.5625 18.5 L 26.457031 18.5 L 26.457031 14.523438 Z M 28.050781 28.84375 C 26.730469 28.84375 25.664062 27.777344 25.664062 26.457031 C 25.664062 25.136719 26.730469 24.070312 28.050781 24.070312 C 29.371094 24.070312 30.4375 25.136719 30.4375 26.457031 C 30.4375 27.777344 29.371094 28.84375 28.050781 28.84375 Z M 28.050781 28.84375 " fill-opacity="1" fill-rule="nonzero"/></g></svg>